<?xml version="1.0" standalone="no"?>
<!DOCTYPE svg PUBLIC "-//W3C//DTD SVG 20010904//EN"
 "http://www.w3.org/TR/2001/REC-SVG-20010904/DTD/svg10.dtd">
<svg version="1.0" xmlns="http://www.w3.org/2000/svg"
 width="45.000000pt" height="25.000000pt"  viewBox="0 0 4571.000000 2563.000000"
 preserveAspectRatio="xMidYMid meet">

<g transform="translate(0.000000,2563.000000) scale(0.100000,-0.100000)"
fill="#000000" stroke="none">
<path d="M15335 24180 c-67 -14 -227 -86 -269 -120 -69 -59 -154 -207 -246
-431 -36 -86 -75 -219 -140 -475 -619 -2435 -1376 -4918 -2198 -7219 -55 -154
-173 -491 -262 -750 -1178 -3420 -2298 -6350 -3214 -8403 -311 -698 -513
-1118 -791 -1642 -334 -630 -411 -762 -690 -1195 -288 -446 -349 -532 -482
-675 -43 -47 -136 -153 -207 -235 -71 -83 -155 -177 -186 -210 -38 -41 -65
-82 -85 -130 -16 -38 -33 -76 -39 -84 -19 -24 -119 -7 -205 35 -186 92 -524
509 -766 944 -686 1239 -1317 2945 -1790 4839 -611 2450 -1026 5126 -1197
7726 -17 251 -16 1626 1 1885 23 356 71 725 134 1025 30 143 31 160 31 390 0
264 -10 351 -63 514 -42 132 -92 214 -185 306 -166 164 -340 211 -520 139
-115 -46 -288 -152 -344 -210 -97 -102 -178 -303 -244 -604 -32 -144 -32 -146
-36 -490 -20 -1775 280 -4445 834 -7410 402 -2157 798 -3870 1259 -5450 467
-1602 761 -2407 1186 -3250 284 -564 482 -864 744 -1125 225 -226 392 -319
702 -391 131 -30 359 -43 470 -25 110 17 387 107 483 157 356 184 751 671
1175 1449 155 283 424 840 530 1096 54 129 129 304 167 389 483 1077 1032
2555 1736 4680 390 1178 1280 3754 1732 5015 67 187 186 522 265 745 533 1510
1303 3545 2105 5565 269 678 491 1247 815 2091 256 663 264 693 272 959 6 177
-6 251 -52 349 -80 169 -256 261 -430 226z"/>
<path d="M39730 22515 l0 -165 395 0 395 0 0 -1020 0 -1020 190 0 190 0 0
1020 0 1020 390 0 390 0 0 165 0 165 -975 0 -975 0 0 -165z"/>
<path d="M42010 21495 l0 -1185 185 0 185 0 2 845 3 845 350 -640 350 -640
105 2 105 3 345 632 c190 348 348 635 353 639 4 4 7 -374 7 -839 l0 -847 185
0 185 0 0 1185 0 1185 -198 0 -199 0 -389 -720 c-214 -396 -391 -720 -394
-720 -3 0 -181 324 -395 720 l-390 720 -197 0 -198 0 0 -1185z"/>
<path d="M39864 18046 c-11 -8 -80 -51 -153 -95 -155 -94 -250 -168 -296 -231
-84 -114 -168 -323 -312 -775 -187 -589 -574 -1642 -923 -2515 -139 -347 -269
-657 -494 -1180 l-195 -455 -178 -17 c-98 -9 -188 -17 -199 -17 -20 -1 -18 9
41 172 482 1326 1036 2594 1364 3117 71 114 84 153 123 365 30 163 32 423 4
540 -46 199 -156 346 -311 416 -42 19 -68 23 -165 23 -111 1 -120 -1 -240 -43
-69 -24 -144 -54 -166 -67 -115 -65 -235 -262 -369 -604 -52 -131 -54 -139
-65 -285 -77 -1021 -318 -2179 -723 -3485 l-64 -205 -249 -27 c-343 -38 -860
-102 -1154 -143 -135 -19 -262 -35 -283 -35 -64 0 -516 -77 -733 -125 -424
-94 -632 -176 -697 -274 -78 -117 -153 -306 -175 -441 -6 -36 -18 -108 -27
-160 -9 -52 -25 -128 -36 -168 l-19 -73 57 -66 c154 -177 234 -246 363 -317
78 -42 465 -174 755 -257 247 -70 489 -150 745 -247 257 -96 560 -222 560
-233 0 -41 -383 -986 -476 -1174 -52 -106 -93 -206 -109 -265 -15 -52 -40
-142 -57 -200 -43 -148 -46 -205 -16 -250 31 -46 72 -65 204 -95 189 -43 342
-51 577 -31 111 9 256 18 321 19 l119 2 104 220 c139 292 208 456 277 655 32
91 84 235 116 320 31 85 65 179 75 208 9 28 19 52 22 52 4 0 225 -111 492
-247 318 -161 571 -297 731 -393 135 -81 340 -201 455 -267 116 -67 289 -167
385 -223 529 -311 851 -423 1114 -391 111 13 257 62 353 119 70 40 141 81 282
160 40 22 49 35 107 156 77 160 109 254 129 377 35 220 4 573 -110 1244 -140
821 -213 1577 -246 2555 -9 261 -9 516 0 1050 18 1106 42 1629 117 2530 28
333 37 498 41 765 l5 340 -62 85 c-78 107 -243 269 -339 335 -40 28 -138 98
-217 158 -80 59 -148 107 -152 107 -4 0 -17 -6 -28 -14z m428 -953 c10 -9 18
-27 18 -39 0 -24 -77 -119 -162 -202 l-45 -43 -56 25 c-32 14 -57 28 -57 32 0
3 28 38 62 78 130 151 194 191 240 149z m-558 -808 c129 -815 194 -1767 216
-3145 13 -808 47 -2160 61 -2407 14 -257 14 -754 -1 -948 -20 -278 -76 -680
-101 -726 -13 -26 -34 -34 -111 -49 -102 -19 -105 -14 -58 75 22 42 40 84 40
94 0 37 -35 54 -132 62 -333 28 -1108 321 -2156 815 -158 75 -326 154 -374
176 l-87 40 63 182 c35 99 147 411 249 691 102 281 220 607 262 725 84 235
191 508 206 526 5 6 30 14 57 17 26 4 139 20 252 36 207 30 271 38 970 112
450 47 578 67 651 101 101 47 142 114 119 198 -14 54 -55 93 -118 114 -101 35
-176 31 -982 -52 -421 -44 -767 -78 -769 -76 -7 6 284 722 402 989 65 149 161
369 212 490 262 621 591 1291 918 1870 140 248 169 292 178 269 5 -10 20 -91
33 -179z m-2525 -4141 c-89 -200 -250 -531 -287 -592 -15 -26 -63 -128 -107
-227 -92 -209 -365 -757 -380 -762 -5 -1 -16 1 -23 6 -20 12 184 726 355 1246
74 226 137 411 138 413 4 5 369 80 373 77 1 -1 -30 -74 -69 -161z m-872 -56
c-19 -53 -137 -418 -137 -427 0 -6 -15 -51 -33 -99 -19 -48 -85 -234 -147
-414 -63 -181 -118 -328 -122 -328 -20 0 -1005 495 -1142 574 l-150 85 195 95
c361 175 741 310 1314 467 239 65 229 63 222 47z m-2126 -229 l79 -32 0 -74 0
-74 -32 17 c-60 30 -106 74 -128 119 -19 40 -22 75 -5 75 3 0 42 -14 86 -31z
m2022 -3186 c21 -20 21 -48 -1 -94 -21 -46 -84 -101 -105 -93 -30 11 -67 146
-67 242 l0 44 78 -42 c42 -23 85 -49 95 -57z"/>
<path d="M28290 17201 c-62 -10 -108 -32 -195 -92 -184 -127 -246 -227 -289
-469 -43 -238 -45 -407 -6 -611 44 -235 90 -640 90 -797 l0 -53 -105 -119
c-699 -797 -1189 -1766 -1479 -2928 -78 -311 -204 -975 -260 -1372 -85 -593
-123 -1100 -133 -1740 -9 -645 21 -1227 97 -1848 29 -237 110 -625 181 -872
50 -172 74 -212 196 -331 123 -119 171 -155 281 -207 70 -33 86 -37 177 -40
88 -4 110 -1 180 23 97 32 184 78 288 153 144 104 195 180 242 367 57 223 140
960 225 2000 50 619 82 980 85 984 2 2 17 -25 33 -60 64 -138 394 -388 717
-544 239 -115 527 -209 1017 -330 713 -177 1798 -372 2536 -455 97 -11 249
-31 336 -45 88 -14 244 -34 347 -45 102 -11 240 -28 305 -39 620 -101 1006
-46 1118 159 26 48 28 58 24 144 -3 75 -9 103 -31 149 -65 131 -231 216 -502
257 -44 7 -202 9 -420 6 -192 -2 -393 0 -445 5 -52 5 -225 15 -385 24 -373 19
-791 72 -1276 160 -744 136 -1401 359 -1914 649 -112 64 -347 216 -442 288
-41 30 -44 31 -81 19 -49 -17 -78 -8 -97 29 -30 58 -13 145 55 280 18 36 36
67 40 70 4 3 34 43 67 90 197 278 440 538 704 757 106 88 419 381 419 393 0 4
64 61 143 126 353 294 644 562 1007 930 432 438 646 688 849 989 128 191 206
327 282 495 152 335 191 491 245 995 22 196 22 192 -4 290 -11 44 -32 136 -47
205 -39 184 -91 312 -179 444 -336 505 -844 753 -1581 773 -297 8 -475 -11
-765 -83 -267 -66 -521 -165 -839 -326 -107 -54 -195 -98 -196 -98 -1 0 9 53
22 118 23 111 24 124 13 245 -30 346 -106 570 -246 726 -109 121 -264 183
-404 162z m2490 -1530 c193 -39 342 -98 480 -189 175 -114 284 -239 330 -377
12 -36 32 -136 44 -221 21 -146 22 -164 10 -287 -17 -164 -36 -251 -86 -397
-263 -762 -808 -1456 -1778 -2263 -80 -67 -179 -152 -220 -191 -99 -91 -355
-296 -610 -486 -420 -314 -696 -558 -914 -810 l-47 -55 6 50 c18 165 102 774
141 1025 24 162 62 428 84 590 122 912 258 1743 445 2725 25 132 48 246 50
253 12 33 504 331 619 374 28 11 95 41 148 68 56 28 133 58 183 69 47 12 112
29 143 40 100 32 354 93 427 102 120 14 438 2 545 -20z m-2873 -1733 c-15
-731 -97 -1874 -183 -2548 -199 -1565 -445 -2783 -766 -3797 -28 -90 -55 -163
-59 -163 -8 0 -8 -1 -64 220 -308 1211 -354 2438 -140 3706 97 572 211 1000
388 1454 148 380 360 792 567 1100 78 118 250 350 257 350 4 0 3 -145 0 -322z
m-1237 -7149 c-43 -83 -104 -149 -141 -149 -15 0 -30 4 -33 8 -5 9 185 202
198 202 3 0 -8 -27 -24 -61z"/>
<path d="M22982 15215 c-389 -92 -802 -305 -1176 -605 -382 -307 -470 -388
-726 -665 -258 -279 -580 -665 -751 -901 -34 -46 -63 -84 -65 -84 -3 0 67 201
99 285 8 20 12 117 12 295 -1 255 -2 269 -28 364 -36 133 -86 232 -161 312
-158 173 -338 217 -525 129 -127 -60 -229 -125 -267 -168 -71 -83 -142 -250
-193 -455 -53 -211 -53 -217 -56 -627 -1 -214 -7 -455 -14 -535 -62 -773 -169
-1449 -387 -2445 -67 -310 -84 -369 -185 -665 -241 -709 -467 -1495 -648
-2255 -33 -137 -112 -459 -176 -714 -111 -444 -118 -467 -171 -570 -63 -123
-75 -168 -50 -207 25 -36 298 -168 471 -227 157 -52 302 -89 450 -112 55 -9
101 -18 103 -20 2 -2 -2 -21 -9 -42 -23 -67 -17 -170 13 -235 53 -114 147
-247 202 -284 109 -74 321 -131 576 -155 119 -11 134 -11 294 15 133 20 218
41 395 97 885 277 1849 620 2718 968 706 282 1144 514 1341 712 141 141 228
297 257 463 18 105 19 158 4 262 -27 196 -137 351 -352 495 -165 110 -328 184
-647 294 -766 264 -1230 512 -1532 819 -67 68 -88 98 -133 191 -79 162 -89
208 -89 410 0 139 4 189 23 275 66 306 196 600 437 987 292 469 462 712 789
1128 219 279 268 339 250 305 -14 -27 7 -2 251 300 131 162 285 349 342 415
299 348 518 703 648 1050 l37 100 -2 240 -2 240 -34 100 c-49 147 -75 201
-143 290 -118 158 -267 281 -429 357 -149 70 -249 90 -468 94 -174 3 -199 2
-293 -21z m292 -1160 c17 -24 16 -25 -26 -34 -31 -6 -33 -9 -34 -56 -3 -116
-139 -407 -376 -802 -254 -424 -797 -1231 -1148 -1703 -287 -387 -563 -826
-737 -1174 -255 -509 -335 -927 -258 -1356 8 -47 15 -100 15 -119 0 -42 181
-414 260 -536 65 -99 249 -284 384 -384 237 -177 527 -333 961 -514 326 -137
468 -202 645 -294 80 -42 147 -78 150 -80 3 -3 -13 -19 -35 -36 -21 -18 -64
-54 -95 -81 -92 -81 -444 -308 -635 -410 -656 -348 -1362 -608 -2029 -745
-287 -59 -404 -75 -566 -75 l-145 -1 -65 34 -65 34 -165 -6 c-243 -9 -427 -55
-557 -141 l-52 -34 -20 68 c-30 97 -29 98 26 102 62 4 64 15 20 115 l-33 78 8
130 c47 759 154 1619 304 2437 67 368 63 353 130 583 116 398 290 898 437
1255 69 167 379 812 477 992 419 768 962 1446 1591 1988 161 139 223 186 457
345 140 95 215 137 390 220 295 139 455 200 577 218 17 3 67 4 112 3 70 -1 84
-4 97 -21z m30 -7189 c43 -41 76 -81 74 -88 -3 -7 -17 -17 -31 -22 -21 -8 -33
-6 -55 10 -24 18 -78 114 -97 172 -6 21 -5 23 12 14 10 -6 54 -44 97 -86z
m-5645 -1042 c2 -2 -4 -15 -13 -29 -22 -34 -46 -29 -63 13 l-14 34 43 -7 c24
-4 45 -9 47 -11z"/>
<path d="M14543 13696 c-59 -19 -147 -70 -219 -127 l-62 -48 -223 -6 c-255 -7
-328 -19 -514 -80 -214 -70 -351 -149 -455 -263 -163 -177 -194 -404 -83 -614
112 -213 369 -308 757 -278 153 12 292 34 342 55 27 11 36 11 39 2 10 -27 76
-519 104 -772 91 -816 111 -1228 116 -2480 5 -1167 -5 -1691 -55 -2815 -23
-511 -67 -1351 -76 -1457 -7 -87 4 -84 -180 -52 l-122 22 -153 -23 c-469 -67
-708 -199 -825 -454 -37 -82 -44 -191 -16 -282 24 -80 122 -235 192 -305 56
-56 158 -100 295 -128 206 -41 545 -55 640 -26 91 28 497 133 695 180 324 77
621 139 1125 235 632 120 744 158 873 294 137 145 151 327 35 457 -57 63 -135
103 -244 125 -117 23 -361 15 -559 -20 -297 -53 -577 -88 -967 -121 l-62 -5
-5 32 c-10 61 -46 712 -68 1223 -26 610 -14 2546 23 3400 35 839 114 1713 230
2535 31 222 95 645 105 692 5 24 12 28 62 38 204 40 415 130 515 220 106 96
175 251 164 370 -17 178 -143 313 -346 369 -152 42 -454 52 -626 20 -53 -10
-57 -9 -99 21 -78 53 -134 72 -226 76 -55 3 -100 -1 -127 -10z"/>
<path d="M39395 6804 c-627 -106 -1149 -195 -1160 -197 -11 -2 505 -5 1148 -6
l1167 -1 0 200 c0 110 -3 200 -7 199 -5 -1 -521 -88 -1148 -195z"/>
<path d="M34600 5996 c-657 -112 -1204 -205 -1215 -208 -11 -3 1597 -6 3573
-7 l3592 -1 0 210 0 210 -2377 -1 -2378 -1 -1195 -202z"/>
<path d="M29670 5165 c-657 -112 -1206 -205 -1220 -208 -14 -2 2703 -5 6038
-6 l6062 -1 0 210 0 210 -4842 -1 -4843 -1 -1195 -203z"/>
<path d="M24865 4355 c-660 -112 -1209 -206 -1220 -208 -11 -2 3788 -5 8443
-6 l8462 -1 0 210 0 210 -7242 -1 -7243 -1 -1200 -203z"/>
<path d="M19890 3516 c-657 -112 -1204 -205 -1215 -208 -11 -3 4906 -6 10928
-7 l10947 -1 0 210 0 210 -9732 -1 -9733 -1 -1195 -202z"/>
<path d="M14960 2685 c-657 -112 -1206 -205 -1220 -208 -14 -2 6013 -5 13393
-6 l13417 -1 0 210 0 210 -12197 -1 -12198 -1 -1195 -203z"/>
<path d="M9985 1846 c-654 -112 -1199 -205 -1210 -208 -11 -3 7134 -6 15878
-7 l15897 -1 0 210 0 210 -14687 -1 -14688 -1 -1190 -202z"/>
</g>
</svg>
